<svg width="224" height="80" viewBox="0 0 224 80" fill="none" xmlns="http://www.w3.org/2000/svg">
<path d="M73.6125 13.5978C73.051 11.1668 72.2367 9.61127 71.365 8.75561C70.4748 7.88182 68.8733 7.06249 66.4072 6.48412C63.9836 5.91574 60.9688 5.63671 57.5269 5.64736C50.6474 5.66864 42.3859 6.84479 34.4148 8.85063C26.4319 10.8594 18.9114 13.6573 13.4624 16.8302C10.7335 18.4192 8.63964 20.0361 7.26159 21.5996C5.88038 23.1666 5.38682 24.4795 5.39566 25.5407C5.42115 28.6039 7.36635 33.2256 11.0672 38.7564C14.6812 44.1573 19.6777 50.0011 25.1531 55.3976C30.6283 60.7937 36.5091 65.6703 41.8562 69.1693C44.5302 70.9191 47.0246 72.294 49.2322 73.2201C51.4725 74.16 53.2487 74.5657 54.5373 74.555C55.3977 74.5478 56.599 74.0888 58.1307 72.6651C59.6408 71.2616 61.2263 69.1415 62.8024 66.3936C63.5778 65.0416 64.3355 63.565 65.0684 61.9881C65.1955 61.7147 65.4694 61.5384 65.7714 61.5384H70.0036C70.5547 61.5384 70.9274 62.0986 70.707 62.6027C69.6898 64.9292 68.6113 67.1047 67.4849 69.0686C65.7612 72.0739 63.8614 74.6968 61.8078 76.6056C59.7758 78.4942 57.335 79.9166 54.5821 79.9394C52.2572 79.9587 49.7068 79.2603 47.1414 78.184C44.5434 77.0941 41.7532 75.5408 38.8978 73.6723C33.1862 69.9347 27.0293 64.8144 21.3621 59.2289C15.6951 53.6437 10.4443 47.5212 6.58041 41.7468C2.80341 36.1023 0.0400632 30.3397 0.000492753 25.5854C-0.0232081 22.7379 1.31601 20.1926 3.21055 18.0431C5.10824 15.8901 7.73304 13.9323 10.7435 12.1793C16.7732 8.66826 24.8138 5.71345 33.0957 3.62942C41.3893 1.54244 50.0964 0.285706 57.5102 0.262771C61.215 0.251309 64.6781 0.547339 67.6414 1.24228C70.562 1.92723 73.2563 3.05949 75.1483 4.91662C77.0588 6.7919 78.1985 9.48121 78.87 12.3882C79.0853 13.32 79.2586 14.3017 79.3935 15.3249C79.4243 15.5593 79.3427 15.7941 79.1752 15.9612L77.2953 17.8374C76.9943 18.1378 76.5063 18.1378 76.2053 17.8374L74.1696 15.8057C74.052 15.6884 73.976 15.5363 73.9507 15.3724C73.8545 14.7496 73.7418 14.1574 73.6125 13.5978Z" fill="url(#paint0_linear_228_1909)"/>
<path d="M79.6165 19.8722C79.5693 19.9193 79.6027 19.9999 79.6694 19.9999C79.7115 19.9999 79.7454 19.965 79.7442 19.9229C79.7424 19.8574 79.6629 19.8259 79.6165 19.8722Z" fill="url(#paint1_linear_228_1909)"/>
<path d="M79.1241 19.868L76.9441 22.0437L74.764 19.868" fill="url(#paint2_linear_228_1909)"/>
<path d="M79.1241 19.868L76.9441 22.0437L74.764 19.868" stroke="#04DB6F" stroke-width="3" stroke-linecap="round" stroke-linejoin="round"/>
<path d="M52.4002 57.8576C50.9512 57.8576 49.718 57.6191 48.7006 57.1422C47.6986 56.6499 46.9201 55.9422 46.3652 55.0191C45.8102 54.0807 45.5019 52.9422 45.4402 51.6037C45.4248 50.973 45.4171 50.296 45.4171 49.573C45.4171 48.8499 45.4248 48.1576 45.4402 47.496C45.5019 46.173 45.8102 45.0499 46.3652 44.1268C46.9355 43.1883 47.7294 42.473 48.7468 41.9806C49.7642 41.4883 50.982 41.2422 52.4002 41.2422C53.4331 41.2422 54.3734 41.373 55.2212 41.6345C56.0691 41.896 56.8013 42.273 57.4179 42.7653C58.0345 43.2576 58.5124 43.8345 58.8515 44.496C59.1907 45.1576 59.3757 45.896 59.4065 46.7114C59.4065 46.8499 59.3525 46.9653 59.2446 47.0576C59.1521 47.1499 59.0365 47.196 58.8978 47.196H56.2618C56.0768 47.196 55.9303 47.1499 55.8224 47.0576C55.7145 46.9653 55.6297 46.8114 55.5681 46.596C55.3368 45.6883 54.9515 45.0653 54.4119 44.7268C53.8724 44.3883 53.2018 44.2191 52.4002 44.2191C51.4445 44.2191 50.6891 44.4806 50.1342 45.0037C49.5792 45.5268 49.2786 46.396 49.2324 47.6114C49.1862 48.873 49.1862 50.1653 49.2324 51.4883C49.2786 52.7037 49.5792 53.573 50.1342 54.096C50.6891 54.6191 51.4445 54.8807 52.4002 54.8807C53.2018 54.8807 53.8724 54.7114 54.4119 54.373C54.9669 54.0191 55.3523 53.396 55.5681 52.5037C55.6297 52.273 55.7145 52.1191 55.8224 52.0422C55.9303 51.9499 56.0768 51.9037 56.2618 51.9037H58.8978C59.0365 51.9037 59.1521 51.9499 59.2446 52.0422C59.3525 52.1345 59.4065 52.2499 59.4065 52.3883C59.3757 53.2037 59.1907 53.9422 58.8515 54.6037C58.5124 55.2653 58.0345 55.8422 57.4179 56.3345C56.8013 56.8268 56.0691 57.2037 55.2212 57.4653C54.3734 57.7268 53.4331 57.8576 52.4002 57.8576Z" fill="white"/>
<path d="M61.1953 57.6268C61.0257 57.6268 60.887 57.573 60.779 57.4653C60.6711 57.3576 60.6172 57.2191 60.6172 57.0499V42.0499C60.6172 41.8806 60.6711 41.7422 60.779 41.6345C60.887 41.5268 61.0257 41.473 61.1953 41.473H71.6699C71.8395 41.473 71.9783 41.5268 72.0862 41.6345C72.1941 41.7422 72.248 41.8806 72.248 42.0499V43.896C72.248 44.0499 72.1941 44.1806 72.0862 44.2883C71.9783 44.396 71.8395 44.4499 71.6699 44.4499H64.1781V48.073H71.1612C71.3308 48.073 71.4695 48.1268 71.5775 48.2345C71.6854 48.3422 71.7393 48.4806 71.7393 48.6499V50.3576C71.7393 50.5114 71.6854 50.6422 71.5775 50.7499C71.4695 50.8576 71.3308 50.9114 71.1612 50.9114H64.1781V54.6499H71.8549C72.0245 54.6499 72.1632 54.7037 72.2711 54.8114C72.379 54.9191 72.433 55.0576 72.433 55.2268V57.0499C72.433 57.2191 72.379 57.3576 72.2711 57.4653C72.1632 57.573 72.0245 57.6268 71.8549 57.6268H61.1953Z" fill="white"/>
<path d="M74.3726 57.6268C74.203 57.6268 74.0643 57.573 73.9564 57.4653C73.8485 57.3576 73.7945 57.2191 73.7945 57.0499V42.0499C73.7945 41.8806 73.8485 41.7422 73.9564 41.6345C74.0643 41.5268 74.203 41.473 74.3726 41.473H80.6852C81.9338 41.473 83.0129 41.6653 83.9224 42.0499C84.8473 42.4345 85.5641 43.0191 86.0728 43.8037C86.5969 44.573 86.859 45.5345 86.859 46.6883C86.859 47.8576 86.5969 48.8268 86.0728 49.596C85.5641 50.3499 84.8473 50.9114 83.9224 51.2807C83.0129 51.6499 81.9338 51.8345 80.6852 51.8345H77.5867V57.0499C77.5867 57.2191 77.5327 57.3576 77.4248 57.4653C77.3169 57.573 77.1782 57.6268 77.0086 57.6268H74.3726ZM77.5173 48.973H80.5696C81.3557 48.973 81.9646 48.7807 82.3963 48.396C82.8433 48.0114 83.0668 47.4345 83.0668 46.6653C83.0668 45.9883 82.8664 45.4345 82.4656 45.0037C82.0803 44.573 81.4482 44.3576 80.5696 44.3576H77.5173V48.973Z" fill="white"/>
<path d="M88.408 57.6268C88.2385 57.6268 88.0997 57.573 87.9918 57.4653C87.8839 57.3576 87.83 57.2191 87.83 57.0499V42.0499C87.83 41.8806 87.8839 41.7422 87.9918 41.6345C88.0997 41.5268 88.2385 41.473 88.408 41.473H95.2756C96.555 41.473 97.6033 41.6576 98.4203 42.0268C99.2373 42.396 99.8385 42.9191 100.224 43.596C100.625 44.273 100.825 45.0653 100.825 45.973C100.825 46.5422 100.717 47.0422 100.501 47.473C100.301 47.9037 100.047 48.2576 99.7383 48.5345C99.4454 48.8114 99.1602 49.0191 98.8827 49.1576C99.4839 49.4345 100.008 49.896 100.455 50.5422C100.918 51.173 101.149 51.9268 101.149 52.8037C101.149 53.773 100.933 54.6191 100.501 55.3422C100.07 56.0653 99.43 56.6268 98.5821 57.0268C97.7343 57.4268 96.7015 57.6268 95.4837 57.6268H88.408ZM91.5065 54.9268H95.0443C95.7997 54.9268 96.37 54.7191 96.7554 54.3037C97.1408 53.873 97.3335 53.3653 97.3335 52.7807C97.3335 52.1807 97.1331 51.6807 96.7323 51.2807C96.3469 50.8653 95.7843 50.6576 95.0443 50.6576H91.5065V54.9268ZM91.5065 48.0037H94.8362C95.5607 48.0037 96.1003 47.8268 96.4548 47.473C96.8248 47.1037 97.0098 46.6345 97.0098 46.0653C97.0098 45.496 96.8248 45.0422 96.4548 44.7037C96.1003 44.3499 95.5607 44.173 94.8362 44.173H91.5065V48.0037Z" fill="white"/>
<path d="M103.098 57.6268C102.929 57.6268 102.79 57.573 102.682 57.4653C102.574 57.3422 102.52 57.2037 102.52 57.0499V42.0499C102.52 41.8806 102.574 41.7422 102.682 41.6345C102.805 41.5268 102.944 41.473 103.098 41.473H105.619C105.788 41.473 105.927 41.5268 106.035 41.6345C106.143 41.7422 106.197 41.8806 106.197 42.0499V52.0191L113.296 41.8883C113.373 41.7806 113.465 41.6883 113.573 41.6114C113.696 41.5191 113.85 41.473 114.035 41.473H116.302C116.471 41.473 116.61 41.5268 116.718 41.6345C116.826 41.7422 116.88 41.8806 116.88 42.0499V57.0499C116.88 57.2191 116.826 57.3576 116.718 57.4653C116.61 57.573 116.471 57.6268 116.302 57.6268H113.781C113.627 57.6268 113.488 57.573 113.365 57.4653C113.257 57.3576 113.203 57.2191 113.203 57.0499V47.3806L106.104 57.2114C106.058 57.3037 105.981 57.396 105.873 57.4883C105.765 57.5807 105.603 57.6268 105.388 57.6268H103.098Z" fill="white"/>
<path d="M125.332 57.8576C123.883 57.8576 122.65 57.6191 121.633 57.1422C120.631 56.6499 119.852 55.9422 119.297 55.0191C118.742 54.0807 118.434 52.9422 118.372 51.6037C118.357 50.973 118.349 50.296 118.349 49.573C118.349 48.8499 118.357 48.1576 118.372 47.496C118.434 46.173 118.742 45.0499 119.297 44.1268C119.868 43.1883 120.661 42.473 121.679 41.9806C122.696 41.4883 123.914 41.2422 125.332 41.2422C126.365 41.2422 127.305 41.373 128.153 41.6345C129.001 41.896 129.733 42.273 130.35 42.7653C130.967 43.2576 131.444 43.8345 131.784 44.496C132.123 45.1576 132.308 45.896 132.339 46.7114C132.339 46.8499 132.285 46.9653 132.177 47.0576C132.084 47.1499 131.969 47.196 131.83 47.196H129.194C129.009 47.196 128.862 47.1499 128.754 47.0576C128.647 46.9653 128.562 46.8114 128.5 46.596C128.269 45.6883 127.884 45.0653 127.344 44.7268C126.804 44.3883 126.134 44.2191 125.332 44.2191C124.377 44.2191 123.621 44.4806 123.066 45.0037C122.511 45.5268 122.211 46.396 122.164 47.6114C122.118 48.873 122.118 50.1653 122.164 51.4883C122.211 52.7037 122.511 53.573 123.066 54.096C123.621 54.6191 124.377 54.8807 125.332 54.8807C126.134 54.8807 126.804 54.7114 127.344 54.373C127.899 54.0191 128.284 53.396 128.5 52.5037C128.562 52.273 128.647 52.1191 128.754 52.0422C128.862 51.9499 129.009 51.9037 129.194 51.9037H131.83C131.969 51.9037 132.084 51.9499 132.177 52.0422C132.285 52.1345 132.339 52.2499 132.339 52.3883C132.308 53.2037 132.123 53.9422 131.784 54.6037C131.444 55.2653 130.967 55.8422 130.35 56.3345C129.733 56.8268 129.001 57.2037 128.153 57.4653C127.305 57.7268 126.365 57.8576 125.332 57.8576Z" fill="white"/>
<path d="M31.5474 39.7734C31.3778 39.7734 31.2391 39.7196 31.1312 39.6119C31.0233 39.5042 30.9693 39.3657 30.9693 39.1965V26.8273H26.7609C26.6068 26.8273 26.4758 26.7734 26.3679 26.6657C26.2599 26.558 26.206 26.4273 26.206 26.2734V24.1965C26.206 24.0273 26.2599 23.8888 26.3679 23.7811C26.4758 23.6734 26.6068 23.6196 26.7609 23.6196H38.8774C39.0469 23.6196 39.1857 23.6734 39.2936 23.7811C39.4015 23.8888 39.4554 24.0273 39.4554 24.1965V26.2734C39.4554 26.4273 39.4015 26.558 39.2936 26.6657C39.1857 26.7734 39.0469 26.8273 38.8774 26.8273H34.6921V39.1965C34.6921 39.3657 34.6382 39.5042 34.5302 39.6119C34.4223 39.7196 34.2836 39.7734 34.114 39.7734H31.5474Z" fill="white"/>
<path d="M40.8703 39.7734C40.7007 39.7734 40.562 39.7196 40.4541 39.6119C40.3461 39.5042 40.2922 39.3657 40.2922 39.1965V24.1965C40.2922 24.0273 40.3461 23.8888 40.4541 23.7811C40.562 23.6734 40.7007 23.6196 40.8703 23.6196H47.7378C49.0172 23.6196 50.0655 23.8042 50.8825 24.1734C51.6995 24.5426 52.3007 25.0657 52.6861 25.7426C53.0869 26.4196 53.2873 27.2119 53.2873 28.1196C53.2873 28.6888 53.1794 29.1888 52.9636 29.6196C52.7632 30.0503 52.5088 30.4042 52.2005 30.6811C51.9076 30.958 51.6224 31.1657 51.3449 31.3042C51.9461 31.5811 52.4703 32.0426 52.9173 32.6888C53.3798 33.3196 53.611 34.0734 53.611 34.9503C53.611 35.9196 53.3952 36.7657 52.9636 37.4888C52.5319 38.2119 51.8922 38.7734 51.0444 39.1734C50.1965 39.5734 49.1637 39.7734 47.9459 39.7734H40.8703ZM43.9687 37.0734H47.5065C48.2619 37.0734 48.8323 36.8657 49.2176 36.4503C49.603 36.0196 49.7957 35.5119 49.7957 34.9273C49.7957 34.3273 49.5953 33.8273 49.1945 33.4273C48.8091 33.0119 48.2465 32.8042 47.5065 32.8042H43.9687V37.0734ZM43.9687 30.1503H47.2984C48.023 30.1503 48.5625 29.9734 48.917 29.6196C49.287 29.2503 49.472 28.7811 49.472 28.2119C49.472 27.6426 49.287 27.1888 48.917 26.8503C48.5625 26.4965 48.023 26.3196 47.2984 26.3196H43.9687V30.1503Z" fill="white"/>
<path d="M61.4106 40.0042C60.0079 40.0042 58.7978 39.7734 57.7803 39.3119C56.7629 38.8503 55.9691 38.158 55.3987 37.2349C54.8283 36.2965 54.52 35.1196 54.4738 33.7042C54.4584 33.0426 54.4506 32.3888 54.4506 31.7426C54.4506 31.0811 54.4584 30.4119 54.4738 29.7349C54.52 28.3503 54.8283 27.1888 55.3987 26.2503C55.9845 25.2965 56.7861 24.5811 57.8035 24.1042C58.8363 23.6273 60.0387 23.3888 61.4106 23.3888C62.7672 23.3888 63.9542 23.6273 64.9716 24.1042C66.0044 24.5811 66.8137 25.2965 67.3995 26.2503C67.9853 27.1888 68.2936 28.3503 68.3244 29.7349C68.3552 30.4119 68.3706 31.0811 68.3706 31.7426C68.3706 32.3888 68.3552 33.0426 68.3244 33.7042C68.2782 35.1196 67.9698 36.2965 67.3995 37.2349C66.8291 38.158 66.0352 38.8503 65.0178 39.3119C64.0004 39.7734 62.798 40.0042 61.4106 40.0042ZM61.4106 37.0273C62.3047 37.0273 63.037 36.758 63.6073 36.2196C64.1931 35.6657 64.5014 34.7888 64.5322 33.5888C64.5631 32.9119 64.5785 32.2811 64.5785 31.6965C64.5785 31.0965 64.5631 30.4657 64.5322 29.8042C64.5168 29.0042 64.3704 28.3503 64.0929 27.8426C63.8154 27.3349 63.4455 26.9657 62.983 26.7349C62.536 26.4888 62.0118 26.3657 61.4106 26.3657C60.8095 26.3657 60.2776 26.4888 59.8152 26.7349C59.3527 26.9657 58.9827 27.3349 58.7053 27.8426C58.4432 28.3503 58.2968 29.0042 58.2659 29.8042C58.2505 30.4657 58.2428 31.0965 58.2428 31.6965C58.2428 32.2811 58.2505 32.9119 58.2659 33.5888C58.3122 34.7888 58.6205 35.6657 59.1908 36.2196C59.7612 36.758 60.5011 37.0273 61.4106 37.0273Z" fill="white"/>
<path d="M70.4315 39.7734C70.2619 39.7734 70.1232 39.7196 70.0153 39.6119C69.9074 39.4888 69.8534 39.3503 69.8534 39.1965V24.1965C69.8534 24.0273 69.9074 23.8888 70.0153 23.7811C70.1386 23.6734 70.2773 23.6196 70.4315 23.6196H72.9519C73.1214 23.6196 73.2602 23.6734 73.3681 23.7811C73.476 23.8888 73.5299 24.0273 73.5299 24.1965V34.1657L80.6287 24.0349C80.7058 23.9273 80.7983 23.8349 80.9062 23.758C81.0295 23.6657 81.1836 23.6196 81.3686 23.6196H83.6347C83.8042 23.6196 83.943 23.6734 84.0509 23.7811C84.1588 23.8888 84.2127 24.0273 84.2127 24.1965V39.1965C84.2127 39.3657 84.1588 39.5042 84.0509 39.6119C83.943 39.7196 83.8042 39.7734 83.6347 39.7734H81.1143C80.9601 39.7734 80.8214 39.7196 80.6981 39.6119C80.5902 39.5042 80.5362 39.3657 80.5362 39.1965V29.5273L73.4375 39.358C73.3912 39.4503 73.3141 39.5426 73.2062 39.6349C73.0983 39.7273 72.9365 39.7734 72.7206 39.7734H70.4315Z" fill="white"/>
<path d="M90.605 39.7734C90.4508 39.7734 90.3198 39.7273 90.2119 39.6349C90.1194 39.5273 90.0731 39.3965 90.0731 39.2426V24.1734C90.0731 24.0042 90.1194 23.8734 90.2119 23.7811C90.3198 23.6734 90.4508 23.6196 90.605 23.6196H91.7611C91.9461 23.6196 92.0848 23.6657 92.1773 23.758C92.2698 23.8503 92.3238 23.9273 92.3392 23.9888L97.2412 33.3119L102.166 23.9888C102.197 23.9273 102.251 23.8503 102.328 23.758C102.421 23.6657 102.56 23.6196 102.744 23.6196H103.878C104.047 23.6196 104.178 23.6734 104.271 23.7811C104.379 23.8734 104.432 24.0042 104.432 24.1734V39.2426C104.432 39.3965 104.379 39.5273 104.271 39.6349C104.178 39.7273 104.047 39.7734 103.878 39.7734H102.744C102.59 39.7734 102.459 39.7273 102.351 39.6349C102.259 39.5273 102.213 39.3965 102.213 39.2426V27.8888L98.3512 35.4119C98.2895 35.5657 98.197 35.6888 98.0737 35.7811C97.9503 35.858 97.7962 35.8965 97.6112 35.8965H96.8944C96.694 35.8965 96.5321 35.858 96.4088 35.7811C96.3009 35.6888 96.2084 35.5657 96.1313 35.4119L92.2698 27.8888V39.2426C92.2698 39.3965 92.2159 39.5273 92.108 39.6349C92.0155 39.7273 91.8921 39.7734 91.738 39.7734H90.605Z" fill="white"/>
<path d="M112.848 40.0042C111.538 40.0042 110.412 39.7811 109.472 39.3349C108.532 38.8734 107.807 38.1734 107.298 37.2349C106.79 36.2811 106.505 35.0888 106.443 33.658C106.427 32.9811 106.42 32.3349 106.42 31.7196C106.42 31.0888 106.427 30.4349 106.443 29.758C106.505 28.3426 106.797 27.1657 107.322 26.2273C107.861 25.2734 108.601 24.5657 109.541 24.1042C110.497 23.6273 111.599 23.3888 112.848 23.3888C114.112 23.3888 115.214 23.6273 116.155 24.1042C117.11 24.5657 117.858 25.2734 118.397 26.2273C118.937 27.1657 119.23 28.3426 119.276 29.758C119.307 30.4349 119.322 31.0888 119.322 31.7196C119.322 32.3349 119.307 32.9811 119.276 33.658C119.23 35.0888 118.945 36.2811 118.421 37.2349C117.912 38.1734 117.187 38.8734 116.247 39.3349C115.307 39.7811 114.174 40.0042 112.848 40.0042ZM112.848 38.0426C114.035 38.0426 114.998 37.6888 115.738 36.9811C116.494 36.2734 116.902 35.1273 116.964 33.5426C116.995 32.8503 117.01 32.2349 117.01 31.6965C117.01 31.1426 116.995 30.5273 116.964 29.8503C116.933 28.7888 116.733 27.9273 116.363 27.2657C116.008 26.6042 115.53 26.1196 114.929 25.8119C114.328 25.5042 113.634 25.3503 112.848 25.3503C112.093 25.3503 111.414 25.5042 110.813 25.8119C110.212 26.1196 109.726 26.6042 109.356 27.2657C109.002 27.9273 108.801 28.7888 108.755 29.8503C108.74 30.5273 108.732 31.1426 108.732 31.6965C108.732 32.2349 108.74 32.8503 108.755 33.5426C108.817 35.1273 109.225 36.2734 109.981 36.9811C110.736 37.6888 111.692 38.0426 112.848 38.0426Z" fill="white"/>
<path d="M121.837 39.7734C121.668 39.7734 121.537 39.7273 121.444 39.6349C121.352 39.5273 121.305 39.3965 121.305 39.2426V24.1734C121.305 24.0042 121.352 23.8734 121.444 23.7811C121.537 23.6734 121.668 23.6196 121.837 23.6196H131.896C132.065 23.6196 132.196 23.6734 132.289 23.7811C132.381 23.8734 132.427 24.0042 132.427 24.1734V25.0965C132.427 25.2503 132.381 25.3811 132.289 25.4888C132.196 25.5811 132.065 25.6273 131.896 25.6273H123.571V30.2888H128.15C129.784 30.2888 131.056 30.7119 131.965 31.558C132.875 32.4042 133.329 33.5426 133.329 34.9734C133.329 35.5426 133.221 36.1119 133.006 36.6811C132.79 37.2503 132.466 37.7657 132.034 38.2273C131.618 38.6888 131.086 39.0657 130.439 39.358C129.791 39.6349 129.028 39.7734 128.15 39.7734H121.837ZM123.571 37.9042H127.872C128.551 37.9042 129.121 37.7734 129.583 37.5119C130.046 37.2349 130.4 36.8657 130.647 36.4042C130.894 35.9426 131.017 35.4426 131.017 34.9042C131.017 34.0888 130.755 33.4273 130.231 32.9196C129.722 32.3965 128.936 32.1349 127.872 32.1349H123.571V37.9042Z" fill="white"/>
<path d="M135.218 39.7734C135.048 39.7734 134.917 39.7196 134.825 39.6119C134.732 39.5042 134.686 39.3734 134.686 39.2196V24.1734C134.686 24.0042 134.732 23.8734 134.825 23.7811C134.933 23.6734 135.064 23.6196 135.218 23.6196H136.42C136.574 23.6196 136.698 23.6734 136.79 23.7811C136.898 23.8734 136.952 24.0042 136.952 24.1734V36.1042L145.577 23.9426C145.623 23.8811 145.685 23.8119 145.762 23.7349C145.854 23.658 145.985 23.6196 146.155 23.6196H147.288C147.442 23.6196 147.565 23.6734 147.658 23.7811C147.766 23.8734 147.82 24.0042 147.82 24.1734V39.2426C147.82 39.3965 147.766 39.5273 147.658 39.6349C147.565 39.7273 147.442 39.7734 147.288 39.7734H146.109C145.955 39.7734 145.823 39.7273 145.716 39.6349C145.608 39.5273 145.554 39.3965 145.554 39.2426V27.4042L136.952 39.4503C136.921 39.4965 136.859 39.5657 136.767 39.658C136.675 39.7349 136.543 39.7734 136.374 39.7734H135.218Z" fill="white"/>
<path d="M161.004 39.7734C160.85 39.7734 160.719 39.7273 160.611 39.6349C160.519 39.5273 160.472 39.3965 160.472 39.2426V25.6965H154.738V29.4119C154.738 31.258 154.638 32.8349 154.437 34.1426C154.237 35.4349 153.929 36.4888 153.512 37.3042C153.096 38.1042 152.557 38.7042 151.894 39.1042C151.246 39.4888 150.46 39.7042 149.535 39.7503C149.381 39.7657 149.25 39.7196 149.142 39.6119C149.034 39.5042 148.98 39.3657 148.98 39.1965V38.1811C148.98 37.8734 149.142 37.6965 149.466 37.6503C149.944 37.5734 150.368 37.3657 150.738 37.0273C151.123 36.6888 151.447 36.1888 151.709 35.5273C151.971 34.8503 152.171 33.9888 152.31 32.9426C152.449 31.8811 152.518 30.6119 152.518 29.1349V24.1503C152.518 23.9965 152.564 23.8734 152.657 23.7811C152.765 23.6734 152.896 23.6196 153.05 23.6196H162.183C162.353 23.6196 162.484 23.6734 162.577 23.7811C162.684 23.8734 162.738 24.0042 162.738 24.1734V39.2426C162.738 39.3965 162.684 39.5273 162.577 39.6349C162.484 39.7273 162.353 39.7734 162.183 39.7734H161.004Z" fill="white"/>
<path d="M165.908 39.7734C165.738 39.7734 165.607 39.7273 165.515 39.6349C165.422 39.5273 165.376 39.3965 165.376 39.2426V24.1503C165.376 23.9965 165.422 23.8734 165.515 23.7811C165.607 23.6734 165.738 23.6196 165.908 23.6196H167.087C167.257 23.6196 167.388 23.6734 167.48 23.7811C167.588 23.8734 167.642 23.9965 167.642 24.1503V29.758H171.157C172.853 29.758 174.155 30.1811 175.065 31.0273C175.974 31.858 176.429 33.0811 176.429 34.6965C176.429 35.5734 176.236 36.4042 175.851 37.1888C175.481 37.958 174.903 38.5811 174.117 39.058C173.346 39.5349 172.359 39.7734 171.157 39.7734H165.908ZM167.642 37.8349H170.972C171.974 37.8349 172.752 37.5426 173.307 36.958C173.862 36.3734 174.14 35.6042 174.14 34.6503C174.14 33.6657 173.878 32.9273 173.354 32.4349C172.829 31.9273 172.036 31.6734 170.972 31.6734H167.642V37.8349Z" fill="white"/>
<path d="M178.453 39.7734C178.284 39.7734 178.153 39.7273 178.06 39.6349C177.968 39.5273 177.921 39.3965 177.921 39.2426V24.1734C177.921 24.0042 177.968 23.8734 178.06 23.7811C178.153 23.6734 178.284 23.6196 178.453 23.6196H179.632C179.802 23.6196 179.933 23.6734 180.025 23.7811C180.133 23.8734 180.187 24.0042 180.187 24.1734V30.5426H188.142V24.1734C188.142 24.0042 188.188 23.8734 188.28 23.7811C188.388 23.6734 188.519 23.6196 188.673 23.6196H189.853C190.022 23.6196 190.153 23.6734 190.246 23.7811C190.354 23.8734 190.408 24.0042 190.408 24.1734V39.2426C190.408 39.3965 190.354 39.5273 190.246 39.6349C190.153 39.7273 190.022 39.7734 189.853 39.7734H188.673C188.519 39.7734 188.388 39.7273 188.28 39.6349C188.188 39.5273 188.142 39.3965 188.142 39.2426V32.6196H180.187V39.2426C180.187 39.3965 180.133 39.5273 180.025 39.6349C179.933 39.7273 179.802 39.7734 179.632 39.7734H178.453Z" fill="white"/>
<path d="M193.55 39.7734C193.38 39.7734 193.249 39.7273 193.157 39.6349C193.064 39.5273 193.018 39.3965 193.018 39.2426V24.1503C193.018 23.9965 193.064 23.8734 193.157 23.7811C193.249 23.6734 193.38 23.6196 193.55 23.6196H194.729C194.899 23.6196 195.03 23.6734 195.122 23.7811C195.23 23.8734 195.284 23.9965 195.284 24.1503V29.758H198.244C199.924 29.758 201.219 30.1811 202.128 31.0273C203.053 31.858 203.516 33.0811 203.516 34.6965C203.516 35.5734 203.323 36.4042 202.938 37.1888C202.568 37.958 201.99 38.5811 201.204 39.058C200.417 39.5349 199.431 39.7734 198.244 39.7734H193.55ZM195.284 37.8349H198.059C199.061 37.8349 199.832 37.5426 200.371 36.958C200.926 36.3734 201.204 35.6042 201.204 34.6503C201.204 33.6657 200.941 32.9273 200.417 32.4349C199.893 31.9273 199.107 31.6734 198.059 31.6734H195.284V37.8349ZM206.267 39.7734C206.098 39.7734 205.967 39.7273 205.874 39.6349C205.782 39.5273 205.736 39.3965 205.736 39.2426V24.1503C205.736 23.9965 205.782 23.8734 205.874 23.7811C205.967 23.6734 206.098 23.6196 206.267 23.6196H207.493C207.647 23.6196 207.77 23.6734 207.863 23.7811C207.971 23.8734 208.025 23.9965 208.025 24.1503V39.2426C208.025 39.3965 207.971 39.5273 207.863 39.6349C207.77 39.7273 207.647 39.7734 207.493 39.7734H206.267Z" fill="white"/>
<path d="M211.198 39.7734C211.029 39.7734 210.898 39.7196 210.805 39.6119C210.713 39.5042 210.666 39.3734 210.666 39.2196V24.1734C210.666 24.0042 210.713 23.8734 210.805 23.7811C210.913 23.6734 211.044 23.6196 211.198 23.6196H212.401C212.555 23.6196 212.678 23.6734 212.771 23.7811C212.879 23.8734 212.932 24.0042 212.932 24.1734V36.1042L221.557 23.9426C221.604 23.8811 221.665 23.8119 221.742 23.7349C221.835 23.658 221.966 23.6196 222.135 23.6196H223.268C223.423 23.6196 223.546 23.6734 223.638 23.7811C223.746 23.8734 223.8 24.0042 223.8 24.1734V39.2426C223.8 39.3965 223.746 39.5273 223.638 39.6349C223.546 39.7273 223.423 39.7734 223.268 39.7734H222.089C221.935 39.7734 221.804 39.7273 221.696 39.6349C221.588 39.5273 221.534 39.3965 221.534 39.2426V27.4042L212.932 39.4503C212.902 39.4965 212.84 39.5657 212.747 39.658C212.655 39.7349 212.524 39.7734 212.354 39.7734H211.198ZM217.164 22.6965C216.239 22.6965 215.515 22.558 214.99 22.2811C214.482 22.0042 214.119 21.6503 213.904 21.2196C213.688 20.7734 213.58 20.3119 213.58 19.8349C213.58 19.7119 213.618 19.6119 213.696 19.5349C213.773 19.4426 213.881 19.3965 214.019 19.3965H214.829C214.967 19.3965 215.075 19.4426 215.152 19.5349C215.229 19.6119 215.268 19.7119 215.268 19.8349C215.268 20.0657 215.314 20.2888 215.407 20.5042C215.515 20.7196 215.707 20.9042 215.985 21.058C216.262 21.1965 216.655 21.2657 217.164 21.2657C217.688 21.2657 218.081 21.1965 218.343 21.058C218.621 20.9042 218.806 20.7196 218.898 20.5042C219.006 20.2888 219.06 20.0657 219.06 19.8349C219.06 19.7119 219.099 19.6119 219.176 19.5349C219.253 19.4426 219.361 19.3965 219.499 19.3965H220.309C220.447 19.3965 220.555 19.4426 220.632 19.5349C220.709 19.6119 220.748 19.7119 220.748 19.8349C220.748 20.3119 220.64 20.7734 220.424 21.2196C220.208 21.6503 219.839 22.0042 219.314 22.2811C218.806 22.558 218.089 22.6965 217.164 22.6965Z" fill="white"/>
<defs>
<linearGradient id="paint0_linear_228_1909" x1="74.3787" y1="12.6922" x2="6.19844" y2="37.7801" gradientUnits="userSpaceOnUse">
<stop stop-color="#04DB6F"/>
<stop offset="1" stop-color="#1585EC"/>
</linearGradient>
<linearGradient id="paint1_linear_228_1909" x1="74.3787" y1="12.6922" x2="6.19844" y2="37.7801" gradientUnits="userSpaceOnUse">
<stop stop-color="#04DB6F"/>
<stop offset="1" stop-color="#1585EC"/>
</linearGradient>
<linearGradient id="paint2_linear_228_1909" x1="75.2508" y1="19.675" x2="77.7987" y2="20.8554" gradientUnits="userSpaceOnUse">
<stop stop-color="#04DB6F"/>
<stop offset="1" stop-color="#1585EC"/>
</linearGradient>
</defs>
</svg>
