<svg width="168" height="60" viewBox="0 0 168 60" fill="none" xmlns="http://www.w3.org/2000/svg">
<path d="M55.2094 10.1985C54.7883 8.37525 54.1775 7.20864 53.5237 6.56689C52.8561 5.91154 51.655 5.29705 49.8054 4.86327C47.9877 4.43699 45.7266 4.22772 43.1452 4.2357C37.9855 4.25166 31.7894 5.13378 25.8111 6.63815C19.8239 8.14474 14.1835 10.2432 10.0968 12.6228C8.05014 13.8146 6.47971 15.0273 5.44618 16.1999C4.41027 17.3751 4.0401 18.3598 4.04673 19.1557C4.06585 21.4531 5.52475 24.9194 8.30041 29.0675C11.0109 33.1181 14.7582 37.501 18.8648 41.5484C22.9712 45.5954 27.3818 49.2529 31.3921 51.8771C33.3976 53.1895 35.2684 54.2207 36.9242 54.9153C38.6043 55.6202 39.9365 55.9244 40.9029 55.9164C41.5483 55.9111 42.4493 55.5667 43.598 54.499C44.7306 53.4464 45.9197 51.8563 47.1018 49.7954C47.6834 48.7814 48.2516 47.674 48.8013 46.4913C48.8966 46.2862 49.102 46.154 49.3286 46.154H52.5027C52.916 46.154 53.1955 46.5742 53.0302 46.9522C52.2673 48.6971 51.4584 50.3287 50.6137 51.8016C49.3209 54.0556 47.8961 56.0228 46.3558 57.4544C44.8318 58.8708 43.0013 59.9376 40.9365 59.9547C39.1929 59.9692 37.2801 59.4454 35.3561 58.6382C33.4075 57.8207 31.3149 56.6558 29.1733 55.2544C24.8896 52.4512 20.272 48.611 16.0215 44.4218C11.7713 40.2329 7.83322 35.6411 4.93529 31.3103C2.10254 27.0769 0.0300321 22.755 0.000354306 19.1892C-0.0174213 17.0536 0.986994 15.1446 2.4079 13.5325C3.83117 11.9178 5.79977 10.4494 8.05758 9.13468C12.5799 6.50138 18.6103 4.28527 24.8218 2.72225C31.042 1.15702 37.5723 0.214462 43.1326 0.197261C45.9113 0.188665 48.5086 0.410687 50.731 0.931896C52.9215 1.44561 54.9422 2.2948 56.3612 3.68765C57.7941 5.0941 58.6489 7.11109 59.1525 9.29133C59.3139 9.99022 59.444 10.7264 59.5451 11.4938C59.5682 11.6696 59.507 11.8457 59.3814 11.9711L57.9715 13.3782C57.7457 13.6035 57.3797 13.6035 57.1539 13.3782L55.6272 11.8545C55.539 11.7665 55.482 11.6524 55.463 11.5295C55.3909 11.0624 55.3063 10.6182 55.2094 10.1985Z" fill="url(#paint0_linear_88_919)"/>
<path d="M59.7124 14.9044C59.677 14.9397 59.702 15.0001 59.752 15.0001C59.7836 15.0001 59.809 14.9739 59.8081 14.9424C59.8068 14.8933 59.7472 14.8696 59.7124 14.9044Z" fill="url(#paint1_linear_88_919)"/>
<path d="M59.3431 14.9012L57.7081 16.533L56.073 14.9012" stroke="#04DB6F" stroke-width="3" stroke-linecap="round" stroke-linejoin="round"/>
<path d="M39.3002 43.3934C38.2134 43.3934 37.2885 43.2146 36.5255 42.8569C35.774 42.4877 35.1901 41.9569 34.7739 41.2646C34.3577 40.5607 34.1265 39.7069 34.0802 38.703C34.0686 38.23 34.0629 37.7223 34.0629 37.18C34.0629 36.6377 34.0686 36.1184 34.0802 35.6223C34.1265 34.63 34.3577 33.7877 34.7739 33.0953C35.2017 32.3915 35.7971 31.855 36.5601 31.4857C37.3232 31.1165 38.2366 30.9319 39.3002 30.9319C40.0748 30.9319 40.7801 31.03 41.416 31.2261C42.0518 31.4223 42.601 31.705 43.0635 32.0742C43.5259 32.4434 43.8843 32.8761 44.1387 33.3723C44.393 33.8684 44.5318 34.4223 44.5549 35.0338C44.5549 35.1377 44.5144 35.2242 44.4335 35.2934C44.3641 35.3627 44.2774 35.3973 44.1734 35.3973H42.1964C42.0576 35.3973 41.9478 35.3627 41.8669 35.2934C41.7859 35.2242 41.7223 35.1088 41.6761 34.9473C41.5027 34.2665 41.2136 33.7992 40.809 33.5453C40.4043 33.2915 39.9014 33.1646 39.3002 33.1646C38.5834 33.1646 38.0169 33.3607 37.6007 33.753C37.1845 34.1453 36.959 34.7973 36.9243 35.7088C36.8896 36.655 36.8896 37.6242 36.9243 38.6165C36.959 39.528 37.1845 40.18 37.6007 40.5723C38.0169 40.9646 38.5834 41.1607 39.3002 41.1607C39.9014 41.1607 40.4043 41.0338 40.809 40.78C41.2252 40.5146 41.5142 40.0473 41.6761 39.378C41.7223 39.205 41.7859 39.0896 41.8669 39.0319C41.9478 38.9627 42.0576 38.928 42.1964 38.928H44.1734C44.2774 38.928 44.3641 38.9627 44.4335 39.0319C44.5144 39.1011 44.5549 39.1877 44.5549 39.2915C44.5318 39.903 44.393 40.4569 44.1387 40.953C43.8843 41.4492 43.5259 41.8819 43.0635 42.2511C42.601 42.6203 42.0518 42.903 41.416 43.0992C40.7801 43.2953 40.0748 43.3934 39.3002 43.3934Z" fill="#151E27"/>
<path d="M45.8965 43.2203C45.7693 43.2203 45.6652 43.18 45.5843 43.0992C45.5034 43.0184 45.4629 42.9146 45.4629 42.7877V31.5377C45.4629 31.4107 45.5034 31.3069 45.5843 31.2261C45.6652 31.1453 45.7693 31.105 45.8965 31.105H53.7525C53.8797 31.105 53.9837 31.1453 54.0646 31.2261C54.1456 31.3069 54.186 31.4107 54.186 31.5377V32.9223C54.186 33.0377 54.1456 33.1357 54.0646 33.2165C53.9837 33.2973 53.8797 33.3377 53.7525 33.3377H48.1336V36.055H53.371C53.4981 36.055 53.6022 36.0953 53.6831 36.1761C53.764 36.2569 53.8045 36.3607 53.8045 36.4877V37.7684C53.8045 37.8838 53.764 37.9819 53.6831 38.0627C53.6022 38.1434 53.4981 38.1838 53.371 38.1838H48.1336V40.9877H53.8912C54.0184 40.9877 54.1225 41.028 54.2034 41.1088C54.2843 41.1896 54.3248 41.2934 54.3248 41.4203V42.7877C54.3248 42.9146 54.2843 43.0184 54.2034 43.0992C54.1225 43.18 54.0184 43.2203 53.8912 43.2203H45.8965Z" fill="#151E27"/>
<path d="M55.7795 43.2203C55.6523 43.2203 55.5483 43.18 55.4673 43.0992C55.3864 43.0184 55.3459 42.9146 55.3459 42.7877V31.5377C55.3459 31.4107 55.3864 31.3069 55.4673 31.2261C55.5483 31.1453 55.6523 31.105 55.7795 31.105H60.5139C61.4504 31.105 62.2597 31.2492 62.9418 31.5377C63.6355 31.8261 64.1731 32.2646 64.5546 32.853C64.9477 33.43 65.1443 34.1511 65.1443 35.0165C65.1443 35.8934 64.9477 36.6203 64.5546 37.1973C64.1731 37.7627 63.6355 38.1838 62.9418 38.4607C62.2597 38.7377 61.4504 38.8761 60.5139 38.8761H58.1901V42.7877C58.1901 42.9146 58.1496 43.0184 58.0687 43.0992C57.9877 43.18 57.8837 43.2203 57.7565 43.2203H55.7795ZM58.138 36.73H60.4272C61.0168 36.73 61.4735 36.5857 61.7972 36.2973C62.1325 36.0088 62.3002 35.5761 62.3002 34.9992C62.3002 34.4915 62.1499 34.0761 61.8493 33.753C61.5602 33.43 61.0862 33.2684 60.4272 33.2684H58.138V36.73Z" fill="#151E27"/>
<path d="M66.3061 43.2203C66.1789 43.2203 66.0748 43.18 65.9939 43.0992C65.913 43.0184 65.8725 42.9146 65.8725 42.7877V31.5377C65.8725 31.4107 65.913 31.3069 65.9939 31.2261C66.0748 31.1453 66.1789 31.105 66.3061 31.105H71.4567C72.4163 31.105 73.2025 31.2434 73.8152 31.5203C74.428 31.7973 74.8789 32.1896 75.1679 32.6973C75.4685 33.205 75.6188 33.7992 75.6188 34.48C75.6188 34.9069 75.5379 35.2819 75.376 35.605C75.2257 35.928 75.035 36.1934 74.8037 36.4011C74.5841 36.6088 74.3702 36.7646 74.1621 36.8684C74.613 37.0761 75.0061 37.4223 75.3413 37.9069C75.6882 38.38 75.8616 38.9453 75.8616 39.603C75.8616 40.33 75.6998 40.9646 75.376 41.5069C75.0523 42.0492 74.5725 42.4703 73.9366 42.7703C73.3008 43.0703 72.5261 43.2203 71.6128 43.2203H66.3061ZM68.6299 41.1953H71.2833C71.8498 41.1953 72.2776 41.0396 72.5666 40.728C72.8556 40.405 73.0002 40.0242 73.0002 39.5857C73.0002 39.1357 72.8499 38.7607 72.5493 38.4607C72.2602 38.1492 71.8382 37.9934 71.2833 37.9934H68.6299V41.1953ZM68.6299 36.003H71.1272C71.6706 36.003 72.0752 35.8703 72.3412 35.605C72.6186 35.328 72.7574 34.9761 72.7574 34.5492C72.7574 34.1223 72.6186 33.7819 72.3412 33.528C72.0752 33.2627 71.6706 33.13 71.1272 33.13H68.6299V36.003Z" fill="#151E27"/>
<path d="M77.3238 43.2203C77.1966 43.2203 77.0926 43.18 77.0116 43.0992C76.9307 43.0069 76.8902 42.903 76.8902 42.7877V31.5377C76.8902 31.4107 76.9307 31.3069 77.0116 31.2261C77.1041 31.1453 77.2082 31.105 77.3238 31.105H79.2141C79.3413 31.105 79.4453 31.1453 79.5262 31.2261C79.6072 31.3069 79.6476 31.4107 79.6476 31.5377V39.0146L84.9717 31.4165C85.0295 31.3357 85.0989 31.2665 85.1798 31.2088C85.2723 31.1396 85.3879 31.105 85.5266 31.105H87.2262C87.3533 31.105 87.4574 31.1453 87.5383 31.2261C87.6193 31.3069 87.6597 31.4107 87.6597 31.5377V42.7877C87.6597 42.9146 87.6193 43.0184 87.5383 43.0992C87.4574 43.18 87.3533 43.2203 87.2262 43.2203H85.3359C85.2203 43.2203 85.1162 43.18 85.0237 43.0992C84.9428 43.0184 84.9023 42.9146 84.9023 42.7877V35.5357L79.5783 42.9088C79.5436 42.978 79.4858 43.0473 79.4048 43.1165C79.3239 43.1857 79.2025 43.2203 79.0407 43.2203H77.3238Z" fill="#151E27"/>
<path d="M93.9992 43.3934C92.9125 43.3934 91.9876 43.2146 91.2245 42.8569C90.473 42.4877 89.8891 41.9569 89.4729 41.2646C89.0567 40.5607 88.8255 39.7069 88.7792 38.703C88.7677 38.23 88.7619 37.7223 88.7619 37.18C88.7619 36.6377 88.7677 36.1184 88.7792 35.6223C88.8255 34.63 89.0567 33.7877 89.4729 33.0953C89.9007 32.3915 90.4961 31.855 91.2592 31.4857C92.0222 31.1165 92.9356 30.9319 93.9992 30.9319C94.7739 30.9319 95.4791 31.03 96.115 31.2261C96.7509 31.4223 97.3 31.705 97.7625 32.0742C98.225 32.4434 98.5834 32.8761 98.8377 33.3723C99.0921 33.8684 99.2308 34.4223 99.2539 35.0338C99.2539 35.1377 99.2135 35.2242 99.1325 35.2934C99.0632 35.3627 98.9765 35.3973 98.8724 35.3973H96.8954C96.7567 35.3973 96.6468 35.3627 96.5659 35.2934C96.485 35.2242 96.4214 35.1088 96.3751 34.9473C96.2017 34.2665 95.9127 33.7992 95.508 33.5453C95.1034 33.2915 94.6004 33.1646 93.9992 33.1646C93.2824 33.1646 92.7159 33.3607 92.2997 33.753C91.8835 34.1453 91.658 34.7973 91.6234 35.7088C91.5887 36.655 91.5887 37.6242 91.6234 38.6165C91.658 39.528 91.8835 40.18 92.2997 40.5723C92.7159 40.9646 93.2824 41.1607 93.9992 41.1607C94.6004 41.1607 95.1034 41.0338 95.508 40.78C95.9242 40.5146 96.2133 40.0473 96.3751 39.378C96.4214 39.205 96.485 39.0896 96.5659 39.0319C96.6468 38.9627 96.7567 38.928 96.8954 38.928H98.8724C98.9765 38.928 99.0632 38.9627 99.1325 39.0319C99.2135 39.1011 99.2539 39.1877 99.2539 39.2915C99.2308 39.903 99.0921 40.4569 98.8377 40.953C98.5834 41.4492 98.225 41.8819 97.7625 42.2511C97.3 42.6203 96.7509 42.903 96.115 43.0992C95.4791 43.2953 94.7739 43.3934 93.9992 43.3934Z" fill="#151E27"/>
<path d="M23.6605 29.8303C23.5334 29.8303 23.4293 29.7899 23.3484 29.7091C23.2674 29.6284 23.227 29.5245 23.227 29.3976V20.1207H20.0707C19.9551 20.1207 19.8568 20.0803 19.7759 19.9995C19.6949 19.9188 19.6545 19.8207 19.6545 19.7053V18.1476C19.6545 18.0207 19.6949 17.9168 19.7759 17.8361C19.8568 17.7553 19.9551 17.7149 20.0707 17.7149H29.158C29.2852 17.7149 29.3892 17.7553 29.4702 17.8361C29.5511 17.9168 29.5916 18.0207 29.5916 18.1476V19.7053C29.5916 19.8207 29.5511 19.9188 29.4702 19.9995C29.3892 20.0803 29.2852 20.1207 29.158 20.1207H26.0191V29.3976C26.0191 29.5245 25.9786 29.6284 25.8977 29.7091C25.8167 29.7899 25.7127 29.8303 25.5855 29.8303H23.6605Z" fill="#151E27"/>
<path d="M30.6527 29.8303C30.5255 29.8303 30.4215 29.7899 30.3405 29.7091C30.2596 29.6284 30.2191 29.5245 30.2191 29.3976V18.1476C30.2191 18.0207 30.2596 17.9168 30.3405 17.8361C30.4215 17.7553 30.5255 17.7149 30.6527 17.7149H35.8033C36.7629 17.7149 37.5491 17.8534 38.1619 18.1303C38.7746 18.4072 39.2255 18.7995 39.5145 19.3072C39.8151 19.8149 39.9654 20.4091 39.9654 21.0899C39.9654 21.5168 39.8845 21.8918 39.7226 22.2149C39.5723 22.538 39.3816 22.8034 39.1504 23.0111C38.9307 23.2188 38.7168 23.3745 38.5087 23.4784C38.9596 23.6861 39.3527 24.0322 39.688 24.5168C40.0348 24.9899 40.2082 25.5553 40.2082 26.213C40.2082 26.9399 40.0464 27.5745 39.7226 28.1168C39.3989 28.6591 38.9191 29.0803 38.2832 29.3803C37.6474 29.6803 36.8727 29.8303 35.9594 29.8303H30.6527ZM32.9765 27.8053H35.6299C36.1964 27.8053 36.6242 27.6495 36.9132 27.338C37.2022 27.0149 37.3468 26.6341 37.3468 26.1957C37.3468 25.7457 37.1965 25.3707 36.8959 25.0707C36.6068 24.7591 36.1848 24.6034 35.6299 24.6034H32.9765V27.8053ZM32.9765 22.613H35.4738C36.0172 22.613 36.4219 22.4803 36.6878 22.2149C36.9652 21.938 37.104 21.5861 37.104 21.1591C37.104 20.7322 36.9652 20.3918 36.6878 20.138C36.4219 19.8726 36.0172 19.7399 35.4738 19.7399H32.9765V22.613Z" fill="#151E27"/>
<path d="M46.058 30.0034C45.0059 30.0034 44.0983 29.8303 43.3352 29.4841C42.5722 29.138 41.9768 28.6188 41.549 27.9265C41.1212 27.2226 40.89 26.3399 40.8553 25.2784C40.8438 24.7822 40.838 24.2918 40.838 23.8072C40.838 23.3111 40.8438 22.8091 40.8553 22.3015C40.89 21.263 41.1212 20.3918 41.549 19.688C41.9883 18.9726 42.5895 18.4361 43.3526 18.0784C44.1272 17.7207 45.029 17.5418 46.058 17.5418C47.0754 17.5418 47.9656 17.7207 48.7287 18.0784C49.5033 18.4361 50.1103 18.9726 50.5496 19.688C50.9889 20.3918 51.2202 21.263 51.2433 22.3015C51.2664 22.8091 51.278 23.3111 51.278 23.8072C51.278 24.2918 51.2664 24.7822 51.2433 25.2784C51.2086 26.3399 50.9774 27.2226 50.5496 27.9265C50.1218 28.6188 49.5264 29.138 48.7634 29.4841C48.0003 29.8303 47.0985 30.0034 46.058 30.0034ZM46.058 27.7707C46.7285 27.7707 47.2777 27.5688 47.7055 27.1649C48.1448 26.7495 48.376 26.0918 48.3992 25.1918C48.4223 24.6841 48.4339 24.2111 48.4339 23.7726C48.4339 23.3226 48.4223 22.8495 48.3992 22.3534C48.3876 21.7534 48.2778 21.263 48.0697 20.8822C47.8616 20.5015 47.5841 20.2245 47.2372 20.0515C46.902 19.8668 46.5089 19.7745 46.058 19.7745C45.6071 19.7745 45.2082 19.8668 44.8614 20.0515C44.5145 20.2245 44.237 20.5015 44.0289 20.8822C43.8324 21.263 43.7226 21.7534 43.6994 22.3534C43.6879 22.8495 43.6821 23.3226 43.6821 23.7726C43.6821 24.2111 43.6879 24.6841 43.6994 25.1918C43.7341 26.0918 43.9653 26.7495 44.3931 27.1649C44.8209 27.5688 45.3758 27.7707 46.058 27.7707Z" fill="#151E27"/>
<path d="M52.8236 29.8303C52.6964 29.8303 52.5924 29.7899 52.5114 29.7091C52.4305 29.6168 52.39 29.513 52.39 29.3976V18.1476C52.39 18.0207 52.4305 17.9168 52.5114 17.8361C52.6039 17.7553 52.708 17.7149 52.8236 17.7149H54.7139C54.8411 17.7149 54.9451 17.7553 55.026 17.8361C55.107 17.9168 55.1474 18.0207 55.1474 18.1476V25.6245L60.4715 18.0265C60.5293 17.9457 60.5987 17.8765 60.6796 17.8188C60.7721 17.7495 60.8877 17.7149 61.0264 17.7149H62.726C62.8532 17.7149 62.9572 17.7553 63.0381 17.8361C63.1191 17.9168 63.1595 18.0207 63.1595 18.1476V29.3976C63.1595 29.5245 63.1191 29.6284 63.0381 29.7091C62.9572 29.7899 62.8532 29.8303 62.726 29.8303H60.8357C60.7201 29.8303 60.616 29.7899 60.5235 29.7091C60.4426 29.6284 60.4021 29.5245 60.4021 29.3976V22.1457L55.0781 29.5188C55.0434 29.588 54.9856 29.6572 54.9047 29.7265C54.8237 29.7957 54.7023 29.8303 54.5405 29.8303H52.8236Z" fill="#151E27"/>
<path d="M67.9537 29.8303C67.8381 29.8303 67.7398 29.7957 67.6589 29.7265C67.5895 29.6457 67.5548 29.5476 67.5548 29.4322V18.1303C67.5548 18.0034 67.5895 17.9053 67.6589 17.8361C67.7398 17.7553 67.8381 17.7149 67.9537 17.7149H68.8208C68.9596 17.7149 69.0636 17.7495 69.133 17.8188C69.2023 17.888 69.2428 17.9457 69.2544 17.9918L72.9309 24.9841L76.6248 17.9918C76.6479 17.9457 76.6884 17.888 76.7462 17.8188C76.8156 17.7495 76.9196 17.7149 77.0584 17.7149H77.9081C78.0353 17.7149 78.1336 17.7553 78.2029 17.8361C78.2839 17.9053 78.3243 18.0034 78.3243 18.1303V29.4322C78.3243 29.5476 78.2839 29.6457 78.2029 29.7265C78.1336 29.7957 78.0353 29.8303 77.9081 29.8303H77.0584C76.9427 29.8303 76.8445 29.7957 76.7635 29.7265C76.6942 29.6457 76.6595 29.5476 76.6595 29.4322V20.9168L73.7633 26.5591C73.7171 26.6745 73.6477 26.7668 73.5552 26.8361C73.4627 26.8938 73.3471 26.9226 73.2084 26.9226H72.6708C72.5205 26.9226 72.3991 26.8938 72.3066 26.8361C72.2257 26.7668 72.1563 26.6745 72.0985 26.5591L69.2023 20.9168V29.4322C69.2023 29.5476 69.1619 29.6457 69.081 29.7265C69.0116 29.7957 68.9191 29.8303 68.8035 29.8303H67.9537Z" fill="#151E27"/>
<path d="M84.6359 30.0034C83.6532 30.0034 82.8092 29.8361 82.104 29.5015C81.3987 29.1553 80.8553 28.6303 80.4738 27.9265C80.0923 27.2111 79.8784 26.3168 79.8322 25.2438C79.8206 24.7361 79.8148 24.2515 79.8148 23.7899C79.8148 23.3168 79.8206 22.8265 79.8322 22.3188C79.8784 21.2572 80.0981 20.3745 80.4912 19.6707C80.8958 18.9553 81.4508 18.4245 82.156 18.0784C82.8728 17.7207 83.6995 17.5418 84.6359 17.5418C85.584 17.5418 86.4106 17.7207 87.1159 18.0784C87.8327 18.4245 88.3934 18.9553 88.7981 19.6707C89.2027 20.3745 89.4224 21.2572 89.4571 22.3188C89.4802 22.8265 89.4918 23.3168 89.4918 23.7899C89.4918 24.2515 89.4802 24.7361 89.4571 25.2438C89.4224 26.3168 89.2085 27.2111 88.8154 27.9265C88.4339 28.6303 87.8905 29.1553 87.1852 29.5015C86.48 29.8361 85.6302 30.0034 84.6359 30.0034ZM84.6359 28.5322C85.5262 28.5322 86.2488 28.2668 86.8037 27.7361C87.3702 27.2053 87.6766 26.3457 87.7229 25.1572C87.746 24.638 87.7575 24.1765 87.7575 23.7726C87.7575 23.3572 87.746 22.8957 87.7229 22.388C87.6997 21.5918 87.5494 20.9457 87.272 20.4495C87.006 19.9534 86.6476 19.5899 86.1967 19.3591C85.7458 19.1284 85.2256 19.013 84.6359 19.013C84.0694 19.013 83.5607 19.1284 83.1098 19.3591C82.6589 19.5899 82.2947 19.9534 82.0173 20.4495C81.7514 20.9457 81.6011 21.5918 81.5664 22.388C81.5548 22.8957 81.549 23.3572 81.549 23.7726C81.549 24.1765 81.5548 24.638 81.5664 25.1572C81.6126 26.3457 81.919 27.2053 82.4855 27.7361C83.052 28.2668 83.7688 28.5322 84.6359 28.5322Z" fill="#151E27"/>
<path d="M91.3779 29.8303C91.2507 29.8303 91.1524 29.7957 91.083 29.7265C91.0137 29.6457 90.979 29.5476 90.979 29.4322V18.1303C90.979 18.0034 91.0137 17.9053 91.083 17.8361C91.1524 17.7553 91.2507 17.7149 91.3779 17.7149H98.9217C99.0489 17.7149 99.1472 17.7553 99.2165 17.8361C99.2859 17.9053 99.3206 18.0034 99.3206 18.1303V18.8226C99.3206 18.938 99.2859 19.0361 99.2165 19.1168C99.1472 19.1861 99.0489 19.2207 98.9217 19.2207H92.6785V22.7168H96.1123C97.3378 22.7168 98.2916 23.0341 98.9737 23.6688C99.6559 24.3034 99.9969 25.1572 99.9969 26.2303C99.9969 26.6572 99.916 27.0841 99.7541 27.5111C99.5923 27.938 99.3495 28.3245 99.0258 28.6707C98.7136 29.0168 98.3147 29.2995 97.8292 29.5188C97.3436 29.7265 96.7713 29.8303 96.1123 29.8303H91.3779ZM92.6785 28.4284H95.9042C96.4129 28.4284 96.8406 28.3303 97.1875 28.1341C97.5343 27.9265 97.8003 27.6495 97.9852 27.3034C98.1702 26.9572 98.2627 26.5822 98.2627 26.1784C98.2627 25.5668 98.0662 25.0707 97.6731 24.6899C97.2915 24.2976 96.7019 24.1015 95.9042 24.1015H92.6785V28.4284Z" fill="#151E27"/>
<path d="M101.413 29.8303C101.286 29.8303 101.188 29.7899 101.118 29.7091C101.049 29.6284 101.014 29.5303 101.014 29.4149V18.1303C101.014 18.0034 101.049 17.9053 101.118 17.8361C101.199 17.7553 101.298 17.7149 101.413 17.7149H102.315C102.431 17.7149 102.523 17.7553 102.593 17.8361C102.674 17.9053 102.714 18.0034 102.714 18.1303V27.0784L109.183 17.9572C109.217 17.9111 109.264 17.8591 109.321 17.8015C109.391 17.7438 109.489 17.7149 109.616 17.7149H110.466C110.582 17.7149 110.674 17.7553 110.743 17.8361C110.824 17.9053 110.865 18.0034 110.865 18.1303V29.4322C110.865 29.5476 110.824 29.6457 110.743 29.7265C110.674 29.7957 110.582 29.8303 110.466 29.8303H109.581C109.466 29.8303 109.368 29.7957 109.287 29.7265C109.206 29.6457 109.165 29.5476 109.165 29.4322V20.5534L102.714 29.588C102.691 29.6226 102.645 29.6745 102.575 29.7438C102.506 29.8015 102.408 29.8303 102.28 29.8303H101.413Z" fill="#151E27"/>
<path d="M120.753 29.8303C120.637 29.8303 120.539 29.7957 120.458 29.7265C120.389 29.6457 120.354 29.5476 120.354 29.4322V19.2726H116.053V22.0591C116.053 23.4438 115.978 24.6265 115.828 25.6072C115.678 26.5765 115.446 27.3668 115.134 27.9784C114.822 28.5784 114.417 29.0284 113.92 29.3284C113.435 29.6168 112.845 29.7784 112.151 29.813C112.036 29.8245 111.937 29.7899 111.857 29.7091C111.776 29.6284 111.735 29.5245 111.735 29.3976V28.6361C111.735 28.4053 111.857 28.2726 112.099 28.238C112.458 28.1803 112.776 28.0245 113.053 27.7707C113.342 27.5168 113.585 27.1418 113.782 26.6457C113.978 26.138 114.128 25.4918 114.232 24.7072C114.336 23.9111 114.389 22.9591 114.389 21.8515V18.113C114.389 17.9976 114.423 17.9053 114.493 17.8361C114.573 17.7553 114.672 17.7149 114.787 17.7149H121.638C121.765 17.7149 121.863 17.7553 121.932 17.8361C122.013 17.9053 122.054 18.0034 122.054 18.1303V29.4322C122.054 29.5476 122.013 29.6457 121.932 29.7265C121.863 29.7957 121.765 29.8303 121.638 29.8303H120.753Z" fill="#151E27"/>
<path d="M124.431 29.8303C124.304 29.8303 124.206 29.7957 124.136 29.7265C124.067 29.6457 124.032 29.5476 124.032 29.4322V18.113C124.032 17.9976 124.067 17.9053 124.136 17.8361C124.206 17.7553 124.304 17.7149 124.431 17.7149H125.315C125.443 17.7149 125.541 17.7553 125.61 17.8361C125.691 17.9053 125.732 17.9976 125.732 18.113V22.3188H128.368C129.639 22.3188 130.616 22.6361 131.299 23.2707C131.981 23.8938 132.322 24.8111 132.322 26.0226C132.322 26.6803 132.177 27.3034 131.888 27.8918C131.611 28.4688 131.177 28.9361 130.587 29.2938C130.009 29.6515 129.269 29.8303 128.368 29.8303H124.431ZM125.732 28.3765H128.229C128.98 28.3765 129.564 28.1572 129.98 27.7188C130.397 27.2803 130.605 26.7034 130.605 25.988C130.605 25.2495 130.408 24.6957 130.015 24.3265C129.622 23.9457 129.027 23.7553 128.229 23.7553H125.732V28.3765Z" fill="#151E27"/>
<path d="M133.84 29.8303C133.713 29.8303 133.614 29.7957 133.545 29.7265C133.476 29.6457 133.441 29.5476 133.441 29.4322V18.1303C133.441 18.0034 133.476 17.9053 133.545 17.8361C133.614 17.7553 133.713 17.7149 133.84 17.7149H134.724C134.851 17.7149 134.95 17.7553 135.019 17.8361C135.1 17.9053 135.14 18.0034 135.14 18.1303V22.9072H141.106V18.1303C141.106 18.0034 141.141 17.9053 141.21 17.8361C141.291 17.7553 141.389 17.7149 141.505 17.7149H142.39C142.517 17.7149 142.615 17.7553 142.684 17.8361C142.765 17.9053 142.806 18.0034 142.806 18.1303V29.4322C142.806 29.5476 142.765 29.6457 142.684 29.7265C142.615 29.7957 142.517 29.8303 142.39 29.8303H141.505C141.389 29.8303 141.291 29.7957 141.21 29.7265C141.141 29.6457 141.106 29.5476 141.106 29.4322V24.4649H135.14V29.4322C135.14 29.5476 135.1 29.6457 135.019 29.7265C134.95 29.7957 134.851 29.8303 134.724 29.8303H133.84Z" fill="#151E27"/>
<path d="M145.162 29.8303C145.035 29.8303 144.937 29.7957 144.868 29.7265C144.798 29.6457 144.763 29.5476 144.763 29.4322V18.113C144.763 17.9976 144.798 17.9053 144.868 17.8361C144.937 17.7553 145.035 17.7149 145.162 17.7149H146.047C146.174 17.7149 146.272 17.7553 146.342 17.8361C146.423 17.9053 146.463 17.9976 146.463 18.113V22.3188H148.683C149.943 22.3188 150.914 22.6361 151.596 23.2707C152.29 23.8938 152.637 24.8111 152.637 26.0226C152.637 26.6803 152.492 27.3034 152.203 27.8918C151.926 28.4688 151.492 28.9361 150.903 29.2938C150.313 29.6515 149.573 29.8303 148.683 29.8303H145.162ZM146.463 28.3765H148.544C149.296 28.3765 149.874 28.1572 150.278 27.7188C150.695 27.2803 150.903 26.7034 150.903 25.988C150.903 25.2495 150.706 24.6957 150.313 24.3265C149.92 23.9457 149.33 23.7553 148.544 23.7553H146.463V28.3765ZM154.701 29.8303C154.573 29.8303 154.475 29.7957 154.406 29.7265C154.336 29.6457 154.302 29.5476 154.302 29.4322V18.113C154.302 17.9976 154.336 17.9053 154.406 17.8361C154.475 17.7553 154.573 17.7149 154.701 17.7149H155.62C155.735 17.7149 155.828 17.7553 155.897 17.8361C155.978 17.9053 156.019 17.9976 156.019 18.113V29.4322C156.019 29.5476 155.978 29.6457 155.897 29.7265C155.828 29.7957 155.735 29.8303 155.62 29.8303H154.701Z" fill="#151E27"/>
<path d="M158.399 29.8303C158.271 29.8303 158.173 29.7899 158.104 29.7091C158.034 29.6284 158 29.5303 158 29.4149V18.1303C158 18.0034 158.034 17.9053 158.104 17.8361C158.185 17.7553 158.283 17.7149 158.399 17.7149H159.3C159.416 17.7149 159.509 17.7553 159.578 17.8361C159.659 17.9053 159.699 18.0034 159.699 18.1303V27.0784L166.168 17.9572C166.203 17.9111 166.249 17.8591 166.307 17.8015C166.376 17.7438 166.474 17.7149 166.602 17.7149H167.451C167.567 17.7149 167.659 17.7553 167.729 17.8361C167.81 17.9053 167.85 18.0034 167.85 18.1303V29.4322C167.85 29.5476 167.81 29.6457 167.729 29.7265C167.659 29.7957 167.567 29.8303 167.451 29.8303H166.567C166.451 29.8303 166.353 29.7957 166.272 29.7265C166.191 29.6457 166.151 29.5476 166.151 29.4322V20.5534L159.699 29.588C159.676 29.6226 159.63 29.6745 159.561 29.7438C159.491 29.8015 159.393 29.8303 159.266 29.8303H158.399ZM162.873 17.0226C162.179 17.0226 161.636 16.9188 161.243 16.7111C160.861 16.5034 160.59 16.238 160.428 15.9149C160.266 15.5803 160.185 15.2341 160.185 14.8765C160.185 14.7841 160.214 14.7091 160.272 14.6515C160.329 14.5822 160.41 14.5476 160.514 14.5476H161.121C161.225 14.5476 161.306 14.5822 161.364 14.6515C161.422 14.7091 161.451 14.7841 161.451 14.8765C161.451 15.0495 161.486 15.2168 161.555 15.3784C161.636 15.5399 161.78 15.6784 161.988 15.7938C162.197 15.8976 162.491 15.9495 162.873 15.9495C163.266 15.9495 163.561 15.8976 163.757 15.7938C163.966 15.6784 164.104 15.5399 164.174 15.3784C164.255 15.2168 164.295 15.0495 164.295 14.8765C164.295 14.7841 164.324 14.7091 164.382 14.6515C164.44 14.5822 164.52 14.5476 164.625 14.5476H165.231C165.336 14.5476 165.416 14.5822 165.474 14.6515C165.532 14.7091 165.561 14.7841 165.561 14.8765C165.561 15.2341 165.48 15.5803 165.318 15.9149C165.156 16.238 164.879 16.5034 164.486 16.7111C164.104 16.9188 163.567 17.0226 162.873 17.0226Z" fill="#151E27"/>
<defs>
<linearGradient id="paint0_linear_88_919" x1="55.784" y1="9.51935" x2="4.64882" y2="28.3352" gradientUnits="userSpaceOnUse">
<stop stop-color="#04DB6F"/>
<stop offset="1" stop-color="#1585EC"/>
</linearGradient>
<linearGradient id="paint1_linear_88_919" x1="55.784" y1="9.51935" x2="4.64882" y2="28.3352" gradientUnits="userSpaceOnUse">
<stop stop-color="#04DB6F"/>
<stop offset="1" stop-color="#1585EC"/>
</linearGradient>
</defs>
</svg>
