<svg width="19" height="17" viewBox="0 0 19 17" fill="none" xmlns="http://www.w3.org/2000/svg">
<path d="M16.5556 12.6346L16.5557 12.6346L16.558 12.6211C16.8062 11.1831 17.0845 9.33551 17.3302 7.68287C17.3649 7.44941 17.3989 7.22019 17.4321 6.99673C17.6356 5.62507 17.8069 4.47057 17.9099 3.88675L16.9252 3.7129L17.9123 3.87265C17.9941 3.36715 18.0352 2.86777 17.961 2.43119C17.8813 1.96297 17.6385 1.43536 17.06 1.16228C16.5653 0.928753 16.0319 0.99017 15.6306 1.08176C15.2044 1.17903 14.7229 1.36055 14.2042 1.58664C13.3294 1.93509 7.82349 4.26759 3.53774 6.22233L3.53651 6.22289C3.22487 6.36555 2.92345 6.53014 2.67615 6.72382C2.45278 6.89877 2.13237 7.206 2.03066 7.66992C1.90737 8.23224 2.16435 8.6894 2.45989 8.97018C2.7258 9.22281 3.0743 9.39476 3.41352 9.52347L3.48825 9.55183L3.56653 9.56795C3.79286 9.61457 4.44396 9.83555 5.22652 10.1042L5.27051 10.1193L5.31571 10.1303C5.932 10.2796 6.48007 10.317 6.99563 10.2205C7.4604 10.1334 7.83412 9.94941 8.15372 9.74306C8.05818 10.1374 8.11675 10.5115 8.27131 10.8299C8.42209 11.1404 8.64694 11.3636 8.80979 11.5066C8.93152 11.6135 9.07816 11.7242 9.17568 11.7978C9.20256 11.8181 9.22571 11.8356 9.24357 11.8494L9.25666 11.8595L9.27007 11.8692C9.88618 12.3133 12.4176 14.0519 12.979 14.4165C13.5415 14.8204 14.4143 15.2645 15.2926 14.8122C15.7101 14.5973 15.9838 14.2409 16.1654 13.8814C16.3468 13.5225 16.4692 13.0971 16.5556 12.6346Z" stroke="#151E27" stroke-width="2"/>
</svg>
