<svg width="32" height="32" viewBox="0 0 32 32" fill="none" xmlns="http://www.w3.org/2000/svg">
<rect x="0.999878" y="1" width="30" height="30" rx="15" stroke="#151E27" stroke-width="2" stroke-linecap="round" stroke-linejoin="round"/>
<g clip-path="url(#clip0_88_967)">
<path d="M22.7499 14.5C22.7499 19.75 15.9999 24.25 15.9999 24.25C15.9999 24.25 9.24988 19.75 9.24988 14.5C9.24988 12.7098 9.96104 10.9929 11.2269 9.72703C12.4928 8.46116 14.2097 7.75 15.9999 7.75C17.7901 7.75 19.507 8.46116 20.7728 9.72703C22.0387 10.9929 22.7499 12.7098 22.7499 14.5Z" stroke="#151E27" stroke-width="2" stroke-linecap="round" stroke-linejoin="round"/>
<path d="M15.9999 16.75C17.2425 16.75 18.2499 15.7426 18.2499 14.5C18.2499 13.2574 17.2425 12.25 15.9999 12.25C14.7572 12.25 13.7499 13.2574 13.7499 14.5C13.7499 15.7426 14.7572 16.75 15.9999 16.75Z" stroke="#151E27" stroke-width="2" stroke-linecap="round" stroke-linejoin="round"/>
</g>
<defs>
<clipPath id="clip0_88_967">
<rect width="18" height="18" fill="white" transform="translate(6.99988 7)"/>
</clipPath>
</defs>
</svg>
