<svg width="48" height="32" viewBox="0 0 48 32" fill="none" xmlns="http://www.w3.org/2000/svg">
<path d="M28.8598 24.7578H19.1171V7.24854H28.8598V24.7578Z" fill="#FF5F00"/>
<path d="M19.7416 16.002C19.7416 12.4501 21.4046 9.28627 23.9943 7.24734C22.1005 5.75638 19.7105 4.86648 17.113 4.86648C10.9636 4.86648 5.97888 9.85193 5.97888 16.002C5.97888 22.152 10.9636 27.1375 17.113 27.1375C19.7105 27.1375 22.1005 26.2475 23.9943 24.7566C21.4046 22.7177 19.7416 19.5538 19.7416 16.002Z" fill="#EB001B"/>
<path d="M41.9995 16.002C41.9995 22.152 37.0147 27.1375 30.8654 27.1375C28.2679 27.1375 25.8778 26.2475 23.9833 24.7566C26.5738 22.7177 28.2368 19.5538 28.2368 16.002C28.2368 12.4501 26.5738 9.28627 23.9833 7.24734C25.8778 5.75638 28.2679 4.86648 30.8654 4.86648C37.0147 4.86648 41.9995 9.85193 41.9995 16.002Z" fill="#F79E1B"/>
</svg>
