<svg width="32" height="32" viewBox="0 0 32 32" fill="none" xmlns="http://www.w3.org/2000/svg">
<g clip-path="url(#clip0_295_1973)">
<rect x="0.999878" y="1" width="30" height="30" rx="15" fill="white" stroke="white" stroke-width="2" stroke-linecap="round" stroke-linejoin="round"/>
<path d="M22.9099 11.8868L22.9112 11.8797L22.9123 11.8727C22.9941 11.3671 23.0352 10.8678 22.961 10.4312C22.8813 9.96297 22.6385 9.43536 22.06 9.16228C21.5653 8.92875 21.0319 8.99017 20.6306 9.08176C20.2044 9.17903 19.7229 9.36056 19.2042 9.58664C18.3294 9.9351 12.8235 12.2676 8.53774 14.2223L8.53651 14.2229C8.22487 14.3655 7.92345 14.5301 7.67615 14.7238C7.45278 14.8988 7.13237 15.206 7.03066 15.6699C6.90737 16.2322 7.16435 16.6894 7.45989 16.9702C7.7258 17.2228 8.0743 17.3948 8.41352 17.5235L8.48825 17.5518L8.56653 17.568C8.79286 17.6146 9.44396 17.8356 10.2265 18.1042L10.2705 18.1193L10.3157 18.1303C10.932 18.2796 11.4801 18.317 11.9956 18.2205C12.4604 18.1334 12.8341 17.9494 13.1537 17.7431C13.0582 18.1374 13.1168 18.5115 13.2713 18.8299C13.4221 19.1404 13.6469 19.3636 13.8098 19.5066C13.9315 19.6135 14.0782 19.7242 14.1757 19.7978C14.2026 19.8181 14.2257 19.8356 14.2436 19.8494L14.2567 19.8595L14.2701 19.8692C14.8862 20.3133 17.4176 22.0519 17.979 22.4165C18.5415 22.8204 19.4143 23.2645 20.2926 22.8122C20.7101 22.5973 20.9838 22.2409 21.1654 21.8814C21.3468 21.5225 21.4692 21.0971 21.5556 20.6346L21.5557 20.6346L21.558 20.6211C21.8062 19.1831 22.0845 17.3355 22.3302 15.6829C22.3649 15.4494 22.3989 15.2202 22.4321 14.9967C22.6356 13.6251 22.8069 12.4706 22.9099 11.8868Z" stroke="#151E27" stroke-width="2"/>
</g>
<defs>
<clipPath id="clip0_295_1973">
<rect width="32" height="32" fill="white"/>
</clipPath>
</defs>
</svg>
