<svg width="50" height="32" viewBox="0 0 50 32" fill="none" xmlns="http://www.w3.org/2000/svg">
<path fill-rule="evenodd" clip-rule="evenodd" d="M15.318 9.55859V9.56381C15.3128 9.56381 13.6774 9.55859 13.2413 11.1282C12.8416 12.5674 11.715 16.5408 11.6838 16.6503H11.3723C11.3723 16.6503 10.2198 12.5882 9.81485 11.1229C9.37875 9.55338 7.7382 9.55859 7.7382 9.55859H4.00024V21.4998H7.7382V14.4081H7.89395H8.0497L10.2302 21.4998H12.826L15.0065 14.4133H15.318V21.4998H19.0559V9.55859H15.318Z" fill="#4DB45E"/>
<path fill-rule="evenodd" clip-rule="evenodd" d="M28.9716 9.55859C28.9716 9.55859 27.8762 9.65767 27.3622 10.8101L24.7145 16.6503H24.403V9.55859H20.6651V21.4998H24.1954C24.1954 21.4998 25.3427 21.3955 25.8567 20.2483L28.4525 14.4081H28.764V21.4998H32.5019V9.55859H28.9716Z" fill="#4DB45E"/>
<path fill-rule="evenodd" clip-rule="evenodd" d="M34.163 14.9814V21.4996H37.9009V17.693H41.9504C43.7155 17.693 45.2107 16.5614 45.7662 14.9814H34.163Z" fill="#4DB45E"/>
<path fill-rule="evenodd" clip-rule="evenodd" d="M41.9503 9.55859H33.6385C34.0539 11.8321 35.7515 13.6572 37.9476 14.2516C38.446 14.3872 38.9703 14.4602 39.5103 14.4602H45.9167C45.9738 14.1891 45.9998 13.9127 45.9998 13.6259C45.9998 11.3785 44.1879 9.55859 41.9503 9.55859Z" fill="url(#paint0_linear_295_1993)"/>
<defs>
<linearGradient id="paint0_linear_295_1993" x1="33.6396" y1="12.0094" x2="45.9998" y2="12.0094" gradientUnits="userSpaceOnUse">
<stop offset="0.3" stop-color="#00B4E6"/>
<stop offset="1" stop-color="#088CCB"/>
</linearGradient>
</defs>
</svg>
